# xmcd
#
# Track frame offsets: 
#        150
#        7935
#        19646
#        35579
#        42765
#        52398
#        62790
#        74289
#        91010
#        104339
#        114676
#        127836
#        142028
#        159580
#        168945
#        176822
#
# Disc length: 2512 seconds
#
# Revision: 0
# Processed by: cddbd v1.5.1PL0 Copyright (c) Steve Scherf et al.
# Submitted via: ExactAudioCopy v0.90b4
#
DISCID=d609ce10
DTITLE=Ricky Wayne Hunt - Gospel Volume 1
DYEAR=2004
DGENRE=A Cappella
TTITLE0=Above All Else
TTITLE1=Going Down The Valley
TTITLE2=Anywhere Is Home
TTITLE3=Boundless Love
TTITLE4=Christian's Welcome Home
TTITLE5=If We Never Meet Again
TTITLE6=Gazing Upward Into Heaven
TTITLE7=Precious Memories
TTITLE8=God's Family
TTITLE9=It Is Well
TTITLE10=Where Could I Go?
TTITLE11=Take My Hand, Precious Lord
TTITLE12=Blood That Stained The Old Rugged Cross
TTITLE13=Lord, We Need A Friend Like You
TTITLE14=Near The Cross
TTITLE15=Get Right Church
EXTD=
EXTT0=
EXTT1=
EXTT2=
EXTT3=
EXTT4=
EXTT5=
EXTT6=
EXTT7=
EXTT8=
EXTT9=
EXTT10=
EXTT11=
EXTT12=
EXTT13=
EXTT14=
EXTT15=
PLAYORDER=
